name C:/MyDriveSym/Projects/mobilecap/Data\Session20210823_0001\mocap\ForceDataProcessed\DJAsym3_forces.mot
datacolumns 28
datarows 15
range 1.11450000 1.12150000
endheader 
time	R_ground_force_vx	R_ground_force_vy	R_ground_force_vz	R_ground_force_px	R_ground_force_py	R_ground_force_pz	R_ground_torque_x	R_ground_torque_y	R_ground_torque_z	L_ground_force_vx	L_ground_force_vy	L_ground_force_vz	L_ground_force_px	L_ground_force_py	L_ground_force_pz	L_ground_torque_x	L_ground_torque_y	L_ground_torque_z	3_ground_force_vx	3_ground_force_vy	3_ground_force_vz	3_ground_force_px	3_ground_force_py	3_ground_force_pz	3_ground_torque_x	3_ground_torque_y	3_ground_torque_z	
          1.11450000	       -100.05756200	        540.22887200	        -21.97575900	         -0.16976400	          0.00600000	         -0.46613600	          0.00000000	         -1.28317000	          0.00000000	        -76.73294100	        570.82945700	         37.94313700	         -0.22964100	          0.00600000	         -0.76115300	          0.00000000	          2.88283600	          0.00000000	          0.00000000	          0.00000000	          0.00000000	          0.00000000	          0.00000000	          0.00000000	          0.00000000	          0.00000000	          0.00000000	
          1.11500000	        -99.85544100	        540.35566100	        -22.11613500	         -0.16968600	          0.00600000	         -0.46614100	          0.00000000	         -1.26045800	          0.00000000	        -76.57351500	        571.00593300	         37.76861400	         -0.22959000	          0.00600000	         -0.76113700	          0.00000000	          2.90174100	          0.00000000	          0.00000000	          0.00000000	          0.00000000	          0.00000000	          0.00000000	          0.00000000	          0.00000000	          0.00000000	          0.00000000	
          1.11550000	        -99.64166400	        540.48490500	        -22.26037600	         -0.16961200	          0.00600000	         -0.46614400	          0.00000000	         -1.23726900	          0.00000000	        -76.40705300	        571.16898000	         37.59195700	         -0.22953800	          0.00600000	         -0.76112100	          0.00000000	          2.92046500	          0.00000000	          0.00000000	          0.00000000	          0.00000000	          0.00000000	          0.00000000	          0.00000000	          0.00000000	          0.00000000	          0.00000000	
          1.11600000	        -99.41707300	        540.61717200	        -22.40831800	         -0.16953900	          0.00600000	         -0.46614600	          0.00000000	         -1.21363900	          0.00000000	        -76.23396500	        571.31869900	         37.41368200	         -0.22948500	          0.00600000	         -0.76110500	          0.00000000	          2.93895900	          0.00000000	          0.00000000	          0.00000000	          0.00000000	          0.00000000	          0.00000000	          0.00000000	          0.00000000	          0.00000000	          0.00000000	
          1.11650000	        -99.18243200	        540.75303000	        -22.55979700	         -0.16946900	          0.00600000	         -0.46614700	          0.00000000	         -1.18960300	          0.00000000	        -76.05456900	        571.45519700	         37.23433400	         -0.22943200	          0.00600000	         -0.76108900	          0.00000000	          2.95719600	          0.00000000	          0.00000000	          0.00000000	          0.00000000	          0.00000000	          0.00000000	          0.00000000	          0.00000000	          0.00000000	          0.00000000	
          1.11700000	        -98.93843500	        540.89303100	        -22.71464800	         -0.16940200	          0.00600000	         -0.46614700	          0.00000000	         -1.16519700	          0.00000000	        -75.86908200	        571.57856800	         37.05447700	         -0.22937800	          0.00600000	         -0.76107300	          0.00000000	          2.97516900	          0.00000000	          0.00000000	          0.00000000	          0.00000000	          0.00000000	          0.00000000	          0.00000000	          0.00000000	          0.00000000	          0.00000000	
          1.11750000	        -98.68570400	        541.03769000	        -22.87269900	         -0.16933700	          0.00600000	         -0.46614700	          0.00000000	         -1.14046900	          0.00000000	        -75.67762400	        571.68889600	         36.87467700	         -0.22932400	          0.00600000	         -0.76105700	          0.00000000	          2.99287500	          0.00000000	          0.00000000	          0.00000000	          0.00000000	          0.00000000	          0.00000000	          0.00000000	          0.00000000	          0.00000000	          0.00000000	
          1.11800000	        -98.42479700	        541.18744600	        -23.03376000	         -0.16927500	          0.00600000	         -0.46614600	          0.00000000	         -1.11547700	          0.00000000	        -75.48024900	        571.78625800	         36.69547500	         -0.22926900	          0.00600000	         -0.76104000	          0.00000000	          3.01030800	          0.00000000	          0.00000000	          0.00000000	          0.00000000	          0.00000000	          0.00000000	          0.00000000	          0.00000000	          0.00000000	          0.00000000	
          1.11850000	        -98.15620200	        541.34261500	        -23.19762200	         -0.16921500	          0.00600000	         -0.46614300	          0.00000000	         -1.09028200	          0.00000000	        -75.27697500	        571.87073400	         36.51736700	         -0.22921400	          0.00600000	         -0.76102400	          0.00000000	          3.02745400	          0.00000000	          0.00000000	          0.00000000	          0.00000000	          0.00000000	          0.00000000	          0.00000000	          0.00000000	          0.00000000	          0.00000000	
          1.11900000	        -97.88033300	        541.50339000	        -23.36405700	         -0.16915800	          0.00600000	         -0.46614100	          0.00000000	         -1.06493500	          0.00000000	        -75.06781000	        571.94240400	         36.34080000	         -0.22915800	          0.00600000	         -0.76100800	          0.00000000	          3.04429100	          0.00000000	          0.00000000	          0.00000000	          0.00000000	          0.00000000	          0.00000000	          0.00000000	          0.00000000	          0.00000000	          0.00000000	
          1.11950000	        -97.59753300	        541.66988000	        -23.53283200	         -0.16910300	          0.00600000	         -0.46613800	          0.00000000	         -1.03947300	          0.00000000	        -74.85276600	        572.00134700	         36.16618900	         -0.22910200	          0.00600000	         -0.76099200	          0.00000000	          3.06079800	          0.00000000	          0.00000000	          0.00000000	          0.00000000	          0.00000000	          0.00000000	          0.00000000	          0.00000000	          0.00000000	          0.00000000	
          1.12000000	        -97.30808300	        541.84214900	        -23.70370500	         -0.16905100	          0.00600000	         -0.46613400	          0.00000000	         -1.01393000	          0.00000000	        -74.63184500	        572.04764400	         35.99392600	         -0.22904600	          0.00600000	         -0.76097600	          0.00000000	          3.07695500	          0.00000000	          0.00000000	          0.00000000	          0.00000000	          0.00000000	          0.00000000	          0.00000000	          0.00000000	          0.00000000	          0.00000000	
          1.12050000	        -97.01219800	        542.02022500	        -23.87643400	         -0.16900100	          0.00600000	         -0.46613000	          0.00000000	         -0.98834100	          0.00000000	        -74.40501800	        572.08139500	         35.82438600	         -0.22899100	          0.00600000	         -0.76096000	          0.00000000	          3.09274400	          0.00000000	          0.00000000	          0.00000000	          0.00000000	          0.00000000	          0.00000000	          0.00000000	          0.00000000	          0.00000000	          0.00000000	
          1.12100000	        -96.71002800	        542.20410900	        -24.05078300	         -0.16895400	          0.00600000	         -0.46612600	          0.00000000	         -0.96274900	          0.00000000	        -74.17221400	        572.10272400	         35.65793600	         -0.22893500	          0.00600000	         -0.76094400	          0.00000000	          3.10814500	          0.00000000	          0.00000000	          0.00000000	          0.00000000	          0.00000000	          0.00000000	          0.00000000	          0.00000000	          0.00000000	          0.00000000	
          1.12150000	        -96.40166700	        542.39376700	        -24.22652600	         -0.16891000	          0.00600000	         -0.46612200	          0.00000000	         -0.93719200	          0.00000000	        -73.93331800	        572.11178300	         35.49494100	         -0.22887900	          0.00600000	         -0.76092900	          0.00000000	          3.12313100	          0.00000000	          0.00000000	          0.00000000	          0.00000000	          0.00000000	          0.00000000	          0.00000000	          0.00000000	          0.00000000	          0.00000000	
